<?xml version="1.0" encoding="UTF-8" standalone="no"?><!DOCTYPE svg PUBLIC "-//W3C//DTD SVG 1.1//EN" "http://www.w3.org/Graphics/SVG/1.1/DTD/svg11.dtd"><svg width="100%" height="100%" viewBox="0 0 90 90" version="1.1" xmlns="http://www.w3.org/2000/svg" xmlns:xlink="http://www.w3.org/1999/xlink" xml:space="preserve" xmlns:serif="http://www.serif.com/" style="fill-rule:evenodd;clip-rule:evenodd;stroke-linejoin:round;stroke-miterlimit:2;"><rect id="Plan-de-travail1" serif:id="Plan de travail1" x="0" y="0" width="90" height="90" style="fill:none;"/><clipPath id="_clip1"><rect x="0" y="0" width="90" height="90"/></clipPath><g clip-path="url(#_clip1)"><g id="affinity-designer"><path d="M90,8.789c0,-4.851 -3.938,-8.789 -8.789,-8.789l-72.422,-0c-4.851,-0 -8.789,3.938 -8.789,8.789l0,72.422c0,4.851 3.938,8.789 8.789,8.789l72.422,-0c4.851,-0 8.789,-3.938 8.789,-8.789l0,-72.422Z" style="fill:#134881;"/><path id="affinity-designer1" serif:id="affinity-designer" d="M83.409,79.92c-0.015,1.928 -1.585,3.488 -3.516,3.488l-35.48,0l-15.166,-26.268l54.162,-0l0,22.78Zm-76.816,-0.027l-0,-15.424l33.415,-57.877l13.059,-0l-28.23,48.896l16.119,27.92l-30.848,0c-1.94,0 -3.515,-1.575 -3.515,-3.515Zm42.817,-25.749l-13.203,0c-1.474,0 -2.836,-0.773 -3.572,-2.05c-0.737,-1.274 -0.737,-2.85 -0,-4.125l6.605,-11.441l10.17,17.616Zm30.483,-47.552c1.931,-0 3.501,1.56 3.516,3.488l0,44.064l-30.54,0l-11.901,-20.609l15.555,-26.943l23.37,-0Z" style="fill:url(#_Radial2);"/></g></g><defs><radialGradient id="_Radial2" cx="0" cy="0" r="1" gradientUnits="userSpaceOnUse" gradientTransform="matrix(91.2533,0,0,91.2533,65.3063,-7.84512)"><stop offset="0" style="stop-color:#6be1fb;stop-opacity:1"/><stop offset="1" style="stop-color:#38bdfa;stop-opacity:1"/></radialGradient></defs></svg>