<?xml version="1.0" encoding="UTF-8" standalone="no"?><!DOCTYPE svg PUBLIC "-//W3C//DTD SVG 1.1//EN" "http://www.w3.org/Graphics/SVG/1.1/DTD/svg11.dtd"><svg width="100%" height="100%" viewBox="0 0 90 90" version="1.1" xmlns="http://www.w3.org/2000/svg" xmlns:xlink="http://www.w3.org/1999/xlink" xml:space="preserve" xmlns:serif="http://www.serif.com/" style="fill-rule:evenodd;clip-rule:evenodd;stroke-linejoin:round;stroke-miterlimit:2;"><rect id="Plan-de-travail1" serif:id="Plan de travail1" x="0" y="0" width="90" height="90" style="fill:none;"/><g id="Layer_2_1_"><g id="Surfaces"><g id="Drawing_Surface"><g id="Outline_no_shadow"><path d="M15.938,1.125l58.125,-0c8.812,-0 15.937,7.125 15.937,15.937l0,55.875c0,8.813 -7.125,15.938 -15.938,15.938l-58.124,-0c-8.813,-0 -15.938,-7.125 -15.938,-15.938l0,-55.875c0,-8.812 7.125,-15.937 15.938,-15.937Z" style="fill:#300;fill-rule:nonzero;"/></g></g></g><g id="Outlined_Mnemonics_Logos"><g id="Ai"><path d="M43.612,53.775l-13.95,-0l-2.849,8.812c-0.075,0.338 -0.375,0.563 -0.713,0.525l-7.05,0c-0.412,0 -0.525,-0.225 -0.412,-0.675l12.075,-34.762c0.112,-0.375 0.225,-0.788 0.375,-1.238c0.15,-0.787 0.225,-1.612 0.225,-2.437c-0.038,-0.188 0.112,-0.375 0.299,-0.413l9.713,0c0.3,0 0.45,0.113 0.487,0.3l13.688,38.625c0.112,0.413 -0,0.6 -0.375,0.6l-7.838,0c-0.262,0.038 -0.525,-0.15 -0.6,-0.412l-3.075,-8.925Zm-11.774,-7.613l9.525,0c-0.225,-0.787 -0.525,-1.725 -0.863,-2.7c-0.337,-1.012 -0.675,-2.1 -1.012,-3.225c-0.375,-1.162 -0.713,-2.287 -1.088,-3.45c-0.375,-1.162 -0.712,-2.25 -1.012,-3.337c-0.3,-1.05 -0.563,-2.025 -0.825,-2.925l-0.075,-0c-0.338,1.612 -0.75,3.225 -1.275,4.837c-0.563,1.8 -1.125,3.675 -1.725,5.55c-0.525,1.913 -1.088,3.675 -1.65,5.25Z" style="fill:#ff9a00;fill-rule:nonzero;"/><path d="M63.675,30c-1.238,0.037 -2.438,-0.45 -3.338,-1.313c-0.862,-0.937 -1.312,-2.175 -1.275,-3.45c-0.037,-1.275 0.45,-2.475 1.35,-3.337c0.9,-0.863 2.1,-1.313 3.338,-1.313c1.462,0 2.587,0.45 3.412,1.313c0.825,0.9 1.275,2.1 1.238,3.337c0.037,1.275 -0.412,2.513 -1.313,3.45c-0.862,0.9 -2.137,1.388 -3.412,1.313Zm-4.2,32.55l-0,-28.875c-0,-0.375 0.15,-0.525 0.487,-0.525l7.426,-0c0.337,-0 0.487,0.187 0.487,0.525l0,28.875c0,0.412 -0.15,0.6 -0.487,0.6l-7.35,-0c-0.376,-0 -0.563,-0.225 -0.563,-0.6Z" style="fill:#ff9a00;fill-rule:nonzero;"/></g></g></g></svg>