<?xml version="1.0" encoding="UTF-8" standalone="no"?><!DOCTYPE svg PUBLIC "-//W3C//DTD SVG 1.1//EN" "http://www.w3.org/Graphics/SVG/1.1/DTD/svg11.dtd"><svg width="100%" height="100%" viewBox="0 0 90 90" version="1.1" xmlns="http://www.w3.org/2000/svg" xmlns:xlink="http://www.w3.org/1999/xlink" xml:space="preserve" xmlns:serif="http://www.serif.com/" style="fill-rule:evenodd;clip-rule:evenodd;stroke-linejoin:round;stroke-miterlimit:2;"><rect id="Plan-de-travail1" serif:id="Plan de travail1" x="0" y="0" width="90" height="90" style="fill:none;"/><clipPath id="_clip1"><rect x="0" y="0" width="90" height="90"/></clipPath><g clip-path="url(#_clip1)"><g id="Bamboo"><path d="M81.442,51.157l-18.712,-0c-1.215,-0.014 -2.266,0.879 -2.448,2.08c-1.058,7.57 -7.605,13.261 -15.248,13.254l5.066,23.142c18.287,-2.389 32.489,-17.461 33.789,-35.857c0.004,-0.057 0.006,-0.115 0.006,-0.172c0,-1.342 -1.105,-2.447 -2.447,-2.447c-0.002,-0 -0.004,-0 -0.006,-0Z" style="fill:#2684ff;fill-rule:nonzero;"/><path d="M49.06,50.569l26.924,-23.142c0.526,-0.464 0.828,-1.133 0.828,-1.835c0,-0.702 -0.302,-1.372 -0.828,-1.836l-26.924,-23.179c-0.441,-0.372 -1.001,-0.577 -1.579,-0.577c-1.339,-0 -2.442,1.099 -2.447,2.437l-0,46.272c0.005,1.339 1.108,2.437 2.447,2.437c0.578,0 1.138,-0.204 1.579,-0.577Z" style="fill:#2684ff;fill-rule:nonzero;"/><path d="M6.472,56.211c2.563,19.243 19.149,33.776 38.562,33.789l-0,-23.509c-8.419,-0 -15.351,-6.916 -15.371,-15.334l-23.191,5.054Z" style="fill:url(#_Linear2);fill-rule:nonzero;"/><path d="M6.105,50.79l-0,0.367l23.558,-0c0.02,-8.419 6.952,-15.334 15.371,-15.334l-5.055,-23.142c-19.115,2.49 -33.642,18.833 -33.874,38.109" style="fill:url(#_Linear3);fill-rule:nonzero;"/></g></g><defs><linearGradient id="_Linear2" x1="0" y1="0" x2="1" y2="0" gradientUnits="userSpaceOnUse" gradientTransform="matrix(3.24697e-15,53.0271,-53.0271,3.24697e-15,25.7589,12.9743)"><stop offset="0" style="stop-color:#0052cc;stop-opacity:1"/><stop offset="1" style="stop-color:#2684ff;stop-opacity:1"/></linearGradient><linearGradient id="_Linear3" x1="0" y1="0" x2="1" y2="0" gradientUnits="userSpaceOnUse" gradientTransform="matrix(1.02085e-13,1667.17,-1667.17,1.02085e-13,625.465,420.913)"><stop offset="0" style="stop-color:#0052cc;stop-opacity:1"/><stop offset="1" style="stop-color:#2684ff;stop-opacity:1"/></linearGradient></defs></svg>