<?xml version="1.0" encoding="UTF-8" standalone="no"?><!DOCTYPE svg PUBLIC "-//W3C//DTD SVG 1.1//EN" "http://www.w3.org/Graphics/SVG/1.1/DTD/svg11.dtd"><svg width="100%" height="100%" viewBox="0 0 90 90" version="1.1" xmlns="http://www.w3.org/2000/svg" xmlns:xlink="http://www.w3.org/1999/xlink" xml:space="preserve" xmlns:serif="http://www.serif.com/" style="fill-rule:evenodd;clip-rule:evenodd;stroke-linejoin:round;stroke-miterlimit:2;"><rect id="Plan-de-travail1" serif:id="Plan de travail1" x="0" y="0" width="90" height="90" style="fill:none;"/><g id="bitbucket"><path d="M35.603,58.17l18.791,0l4.535,-26.48l-28.322,0l4.996,26.48Z" style="fill:none;fill-rule:nonzero;"/><path d="M2.921,4.535c-0.013,0 -0.025,0 -0.037,0c-1.582,0 -2.884,1.302 -2.884,2.884c0,0.155 0.012,0.309 0.037,0.462l12.241,74.311c0.314,1.869 1.94,3.257 3.835,3.273l58.725,-0c1.422,0.018 2.656,-1.019 2.883,-2.423l12.242,-75.147c0.025,-0.152 0.037,-0.307 0.037,-0.461c0,-1.582 -1.302,-2.884 -2.884,-2.884c-0.012,0 -0.025,0 -0.037,0.001l-84.158,-0.016Zm51.544,53.708l-18.743,-0l-5.075,-26.515l28.36,0l-4.542,26.515Z" style="fill:#2684ff;fill-rule:nonzero;"/><path d="M85.995,31.691l-27.04,-0l-4.539,26.493l-18.728,0l-22.114,26.249c0.701,0.606 1.595,0.943 2.521,0.951l58.693,-0c1.421,0.018 2.654,-1.018 2.881,-2.42l8.326,-51.273Z" style="fill:url(#_Linear1);fill-rule:nonzero;"/></g><defs><linearGradient id="_Linear1" x1="0" y1="0" x2="1" y2="0" gradientUnits="userSpaceOnUse" gradientTransform="matrix(-44.6883,34.878,-34.878,-44.6883,92.2476,39.1101)"><stop offset="0" style="stop-color:#0052cc;stop-opacity:1"/><stop offset="0.18" style="stop-color:#0052cc;stop-opacity:1"/><stop offset="1" style="stop-color:#2684ff;stop-opacity:1"/></linearGradient></defs></svg>