<?xml version="1.0" encoding="UTF-8" standalone="no"?><!DOCTYPE svg PUBLIC "-//W3C//DTD SVG 1.1//EN" "http://www.w3.org/Graphics/SVG/1.1/DTD/svg11.dtd"><svg width="100%" height="100%" viewBox="0 0 90 90" version="1.1" xmlns="http://www.w3.org/2000/svg" xmlns:xlink="http://www.w3.org/1999/xlink" xml:space="preserve" xmlns:serif="http://www.serif.com/" style="fill-rule:evenodd;clip-rule:evenodd;stroke-linejoin:round;stroke-miterlimit:2;"><rect id="Plan-de-travail1" serif:id="Plan de travail1" x="0" y="0" width="90" height="90" style="fill:none;"/><path id="bootstrap" d="M9.928,18.513c-0.17,-4.876 3.63,-9.372 8.765,-9.372l52.621,-0c5.135,-0 8.934,4.496 8.764,9.372c-0.163,4.684 0.049,10.752 1.576,15.699c1.532,4.963 4.115,8.1 8.346,8.503l-0,4.57c-4.231,0.403 -6.814,3.54 -8.346,8.503c-1.527,4.947 -1.739,11.015 -1.576,15.699c0.17,4.876 -3.629,9.372 -8.764,9.372l-52.621,0c-5.135,0 -8.935,-4.496 -8.765,-9.372c0.163,-4.684 -0.048,-10.752 -1.576,-15.699c-1.531,-4.963 -4.121,-8.1 -8.352,-8.503l-0,-4.57c4.231,-0.403 6.821,-3.54 8.352,-8.503c1.528,-4.947 1.739,-11.015 1.576,-15.699Zm37.024,45.552c8.314,-0 13.324,-4.071 13.324,-10.785c-0,-5.076 -3.575,-8.75 -8.883,-9.332l-0,-0.211c3.9,-0.635 6.96,-4.256 6.96,-8.3c-0,-5.763 -4.55,-9.517 -11.483,-9.517l-15.598,0l-0,38.145l15.68,-0Zm-9.614,-4.838l-0,-12.556l8.016,0c5.741,0 8.72,2.115 8.72,6.239c0,4.123 -2.898,6.317 -8.368,6.317l-8.368,0Zm-0,-28.469l8.07,-0c4.387,-0 6.879,1.956 6.879,5.498c-0,3.78 -2.898,5.895 -8.152,5.895l-6.797,-0l-0,-11.393Z" style="fill:url(#_Linear1);fill-rule:nonzero;"/><defs><linearGradient id="_Linear1" x1="0" y1="0" x2="1" y2="0" gradientUnits="userSpaceOnUse" gradientTransform="matrix(78.6447,62.4282,-62.4282,78.6447,13.3733,11.0387)"><stop offset="0" style="stop-color:#9013fe;stop-opacity:1"/><stop offset="1" style="stop-color:#6610f2;stop-opacity:1"/></linearGradient></defs></svg>