<?xml version="1.0" encoding="UTF-8" standalone="no"?><!DOCTYPE svg PUBLIC "-//W3C//DTD SVG 1.1//EN" "http://www.w3.org/Graphics/SVG/1.1/DTD/svg11.dtd"><svg width="100%" height="100%" viewBox="0 0 90 90" version="1.1" xmlns="http://www.w3.org/2000/svg" xmlns:xlink="http://www.w3.org/1999/xlink" xml:space="preserve" xmlns:serif="http://www.serif.com/" style="fill-rule:evenodd;clip-rule:evenodd;stroke-linejoin:round;stroke-miterlimit:2;"><rect id="Plan-de-travail1" serif:id="Plan de travail1" x="0" y="0" width="90" height="90" style="fill:none;"/><clipPath id="_clip1"><rect x="0" y="0" width="90" height="90"/></clipPath><g clip-path="url(#_clip1)"><g id="confluence"><path d="M3.258,67.782c-0.929,1.518 -1.974,3.279 -2.865,4.681c-0.787,1.336 -0.355,3.081 0.965,3.896l18.619,11.457c0.452,0.28 0.974,0.428 1.505,0.428c0.992,0 1.916,-0.516 2.436,-1.36l0.026,-0.042c0.743,-1.244 1.704,-2.864 2.749,-4.597c7.374,-12.174 14.787,-10.682 28.17,-4.295l18.461,8.779c0.386,0.184 0.807,0.279 1.233,0.279c1.105,0 2.115,-0.638 2.59,-1.635l0.035,-0.077l8.856,-20.044c0.622,-1.422 -0.019,-3.104 -1.43,-3.751c-3.896,-1.833 -11.644,-5.488 -18.619,-8.853c-25.091,-12.194 -46.417,-11.406 -62.731,15.134Z" style="fill:url(#_Linear2);fill-rule:nonzero;"/><path d="M86.742,22.279c0.929,-1.518 1.974,-3.279 2.865,-4.681c0.787,-1.336 0.355,-3.081 -0.965,-3.896l-18.616,-11.457c-0.472,-0.319 -1.03,-0.489 -1.6,-0.489c-0.951,-0 -1.842,0.474 -2.373,1.264c-0.039,0.055 -0.074,0.111 -0.106,0.17c-0.746,1.244 -1.704,2.864 -2.752,4.597c-7.374,12.174 -14.787,10.682 -28.17,4.295l-18.404,-8.734c-0.385,-0.184 -0.806,-0.279 -1.232,-0.279c-1.102,-0 -2.11,0.637 -2.584,1.632l-0.035,0.077l-8.866,20.053c-0.622,1.422 0.019,3.105 1.43,3.752c3.896,1.832 11.644,5.484 18.62,8.85c25.148,12.174 46.474,11.357 62.788,-15.154Z" style="fill:url(#_Linear3);fill-rule:nonzero;"/></g></g><defs><linearGradient id="_Linear2" x1="0" y1="0" x2="1" y2="0" gradientUnits="userSpaceOnUse" gradientTransform="matrix(-56.3273,-32.3684,32.3684,-56.3273,85.5272,93.7503)"><stop offset="0" style="stop-color:#0052cc;stop-opacity:1"/><stop offset="0.18" style="stop-color:#0052cc;stop-opacity:1"/><stop offset="1" style="stop-color:#2684ff;stop-opacity:1"/></linearGradient><linearGradient id="_Linear3" x1="0" y1="0" x2="1" y2="0" gradientUnits="userSpaceOnUse" gradientTransform="matrix(1513.17,435.551,-435.551,1513.17,1.29495e+06,-1.88525e+06)"><stop offset="0" style="stop-color:#0052cc;stop-opacity:1"/><stop offset="0.18" style="stop-color:#0052cc;stop-opacity:1"/><stop offset="1" style="stop-color:#2684ff;stop-opacity:1"/></linearGradient></defs></svg>