<?xml version="1.0" encoding="UTF-8" standalone="no"?><!DOCTYPE svg PUBLIC "-//W3C//DTD SVG 1.1//EN" "http://www.w3.org/Graphics/SVG/1.1/DTD/svg11.dtd"><svg width="100%" height="100%" viewBox="0 0 90 90" version="1.1" xmlns="http://www.w3.org/2000/svg" xmlns:xlink="http://www.w3.org/1999/xlink" xml:space="preserve" xmlns:serif="http://www.serif.com/" style="fill-rule:evenodd;clip-rule:evenodd;stroke-linejoin:round;stroke-miterlimit:2;"><rect id="Plan-de-travail1" serif:id="Plan de travail1" x="0" y="0" width="90" height="90" style="fill:none;"/><g id="css"><path d="M12.883,80.627l-7.147,-80.157l78.528,0l-7.154,80.144l-32.158,8.916l-32.069,-8.903Z" style="fill:#1572b6;fill-rule:nonzero;"/><path d="M45,82.715l25.985,-7.204l6.114,-68.487l-32.099,0l0,75.691Z" style="fill:#33a9dc;fill-rule:nonzero;"/><path d="M19.959,15.557l-0.056,9.919l40.372,-0l-0.014,6.407l-40.399,-0l-0.029,9.919l40.372,-0l-0.053,11.312l-15.225,5.388l-15.148,-5.388l0.011,-4.906l-9.919,0l-0.045,11.903l25.058,8.927l25.152,-8.927l0.085,-17.907l0.026,-3.592l0.102,-23.055l-50.29,-0Z" style="fill:#fff;fill-rule:nonzero;"/></g></svg>