<?xml version="1.0" encoding="UTF-8" standalone="no"?><!DOCTYPE svg PUBLIC "-//W3C//DTD SVG 1.1//EN" "http://www.w3.org/Graphics/SVG/1.1/DTD/svg11.dtd"><svg width="100%" height="100%" viewBox="0 0 90 90" version="1.1" xmlns="http://www.w3.org/2000/svg" xmlns:xlink="http://www.w3.org/1999/xlink" xml:space="preserve" xmlns:serif="http://www.serif.com/" style="fill-rule:evenodd;clip-rule:evenodd;stroke-linejoin:round;stroke-miterlimit:2;"><rect id="Plan-de-travail1" serif:id="Plan de travail1" x="0" y="0" width="90" height="90" style="fill:none;"/><clipPath id="_clip1"><rect x="0" y="0" width="90" height="90"/></clipPath><g clip-path="url(#_clip1)"><path id="drupal" d="M44.999,0c1.705,6.454 7.227,12.214 13.194,18.191l1.266,1.265c9.43,9.423 19.984,20.128 19.984,36.101c-0,12.305 -6.565,23.676 -17.222,29.829c-10.656,6.152 -23.786,6.152 -34.442,-0c-10.657,-6.153 -17.222,-17.524 -17.222,-29.829c0,-15.651 10.133,-26.243 19.41,-35.528l0.572,-0.573l0.286,-0.285c6.332,-6.331 12.376,-12.365 14.174,-19.171Zm-0.001,51.661c0,-0 -2.162,2.351 -4.427,4.866l-0.317,0.352c-1.636,1.821 -3.276,3.674 -4.147,4.74c-1.865,2.185 -2.909,4.952 -2.953,7.824c0,3.142 1.248,6.155 3.47,8.376c2.221,2.222 5.234,3.47 8.376,3.47c6.542,-0 11.846,-5.304 11.846,-11.846c0.025,-2.896 -1.035,-5.696 -2.972,-7.849c-0.877,-0.979 -2.445,-2.733 -4.022,-4.497l-0.315,-0.353c-2.309,-2.585 -4.539,-5.083 -4.539,-5.083Zm0.001,-31.845l-0.101,0.1c-0.078,0.079 -0.2,0.201 -0.357,0.357l-0.91,0.91c-0.282,0.282 -0.593,0.593 -0.92,0.92l-1.605,1.604c-0.294,0.294 -0.583,0.583 -0.859,0.859l-0.658,0.659c-0.042,0.041 -0.082,0.082 -0.123,0.122l-0.65,0.651c-0.063,0.063 -0.123,0.123 -0.179,0.179l-0.06,0.061c-1.318,1.311 -3.973,3.762 -0.776,7.216c1.661,1.795 6.57,6.958 11.674,12.399l0.681,0.727c6.024,6.431 12.13,13.057 13.329,14.831c1.03,1.524 1.178,2.238 2.572,2.187c0.781,-0.028 1.361,-0.96 1.616,-1.519c1.196,-2.615 3.224,-10.541 -2.661,-19.7c-4.061,-6.319 -12.046,-14.66 -16.607,-19.225l-0.387,-0.387c-1.831,-1.824 -3.019,-2.951 -3.019,-2.951Zm-15.249,15.957c-14.46,14.304 -6.666,27.738 -4.554,27.81c0.219,0.007 0.584,0.034 0.834,-0.663c1.209,-3.374 10.941,-13.133 13.224,-15.475c0.183,-0.146 0.294,-0.363 0.306,-0.596c0.012,-0.233 -0.076,-0.461 -0.242,-0.625l-9.568,-10.451Z" style="fill:#009dde;fill-rule:nonzero;"/></g></svg>