<?xml version="1.0" encoding="UTF-8" standalone="no"?><!DOCTYPE svg PUBLIC "-//W3C//DTD SVG 1.1//EN" "http://www.w3.org/Graphics/SVG/1.1/DTD/svg11.dtd"><svg width="100%" height="100%" viewBox="0 0 90 90" version="1.1" xmlns="http://www.w3.org/2000/svg" xmlns:xlink="http://www.w3.org/1999/xlink" xml:space="preserve" xmlns:serif="http://www.serif.com/" style="fill-rule:evenodd;clip-rule:evenodd;stroke-linejoin:round;stroke-miterlimit:2;"><rect id="Plan-de-travail1" serif:id="Plan de travail1" x="0" y="0" width="90" height="90" style="fill:none;"/><clipPath id="_clip1"><rect x="0" y="0" width="90" height="90"/></clipPath><g clip-path="url(#_clip1)"><g id="git"><path d="M88.315,40.997l-39.305,-39.303c-1.087,-1.087 -2.563,-1.699 -4.101,-1.699c-1.538,-0 -3.014,0.612 -4.101,1.699l-8.159,8.163l10.351,10.352c2.479,-0.842 5.232,-0.201 7.084,1.649c1.862,1.865 2.498,4.64 1.635,7.13l9.98,9.977c2.49,-0.865 5.267,-0.227 7.13,1.638c1.293,1.293 2.021,3.049 2.021,4.877c-0,1.829 -0.728,3.585 -2.021,4.878c-2.679,2.676 -7.084,2.676 -9.763,-0c-1.963,-1.967 -2.555,-4.936 -1.497,-7.505l-9.307,-9.304l0,24.489c2.35,1.161 3.843,3.564 3.843,6.184c-0,1.829 -0.727,3.584 -2.02,4.877c-1.293,1.293 -3.049,2.021 -4.878,2.021c-1.829,-0 -3.584,-0.728 -4.877,-2.021c-1.294,-1.293 -2.021,-3.049 -2.021,-4.878c-0,-1.829 0.727,-3.585 2.021,-4.878c0.645,-0.646 1.412,-1.159 2.257,-1.507l0,-24.715c-2.582,-1.064 -4.276,-3.593 -4.276,-6.385c0,-0.914 0.182,-1.819 0.534,-2.662l-10.207,-10.208l-26.953,26.947c-2.247,2.25 -2.247,5.95 -0,8.201l39.307,39.307c2.251,2.246 5.949,2.246 8.2,-0l39.123,-39.123c2.247,-2.251 2.247,-5.95 0,-8.201" style="fill:#f03c2e;fill-rule:nonzero;"/></g></g></svg>