<?xml version="1.0" encoding="UTF-8" standalone="no"?><!DOCTYPE svg PUBLIC "-//W3C//DTD SVG 1.1//EN" "http://www.w3.org/Graphics/SVG/1.1/DTD/svg11.dtd"><svg width="100%" height="100%" viewBox="0 0 90 90" version="1.1" xmlns="http://www.w3.org/2000/svg" xmlns:xlink="http://www.w3.org/1999/xlink" xml:space="preserve" xmlns:serif="http://www.serif.com/" style="fill-rule:evenodd;clip-rule:evenodd;stroke-linejoin:round;stroke-miterlimit:2;"><rect id="Plan-de-travail1" serif:id="Plan de travail1" x="0" y="0" width="90" height="90" style="fill:none;"/><g id="gitlab"><path d="M88.5,35.949l-0.095,-0.284l-12.32,-32.033c-0.285,-0.664 -0.664,-1.138 -1.233,-1.517c-0.568,-0.379 -1.232,-0.568 -1.895,-0.473c-0.663,-0 -1.327,0.284 -1.895,0.663c-0.569,0.379 -0.948,1.042 -1.043,1.611l-8.245,25.305l-33.55,-0l-8.245,-25.305c-0.19,-0.569 -0.569,-1.232 -1.043,-1.611c-0.568,-0.379 -1.137,-0.663 -1.895,-0.663c-0.664,-0 -1.327,0.094 -1.896,0.473c-0.568,0.379 -1.042,0.853 -1.232,1.517l-12.32,31.938l-0.095,0.285c-3.601,9.477 -0.569,20.186 7.582,26.252l0.095,0.095l18.67,13.931l9.193,7.013l5.592,4.265c1.326,1.043 3.222,1.043 4.549,0l5.591,-4.265l9.193,-7.013l18.765,-14.026l0.095,-0c8.245,-5.971 11.278,-16.68 7.677,-26.158Z" style="fill:#e24329;fill-rule:nonzero;"/><path d="M88.5,35.949l-0.095,-0.284c-6.065,1.232 -11.657,3.791 -16.49,7.392c-0.095,0 -14.596,10.994 -26.916,20.282c9.193,6.918 17.154,12.984 17.154,12.984l18.765,-14.027l0.095,0c8.055,-6.16 11.088,-16.869 7.487,-26.347Z" style="fill:#fc6d26;fill-rule:nonzero;"/><path d="M27.845,76.323l9.193,7.013l5.592,4.265c1.326,1.042 3.222,1.042 4.549,-0l5.591,-4.265l9.193,-7.013c0,-0 -7.961,-6.066 -17.154,-12.984c-9.003,6.918 -16.964,12.984 -16.964,12.984Z" style="fill:#fca326;fill-rule:nonzero;"/><path d="M18.083,42.963c-4.833,-3.602 -10.425,-6.161 -16.49,-7.393l-0.095,0.285c-3.601,9.477 -0.569,20.186 7.582,26.252l0.095,0.095l18.67,13.931c0,0 7.961,-6.065 17.154,-12.984c-12.321,-9.098 -26.821,-20.092 -26.916,-20.186Z" style="fill:#fc6d26;fill-rule:nonzero;"/></g></svg>