<?xml version="1.0" encoding="UTF-8" standalone="no"?><!DOCTYPE svg PUBLIC "-//W3C//DTD SVG 1.1//EN" "http://www.w3.org/Graphics/SVG/1.1/DTD/svg11.dtd"><svg width="100%" height="100%" viewBox="0 0 90 90" version="1.1" xmlns="http://www.w3.org/2000/svg" xmlns:xlink="http://www.w3.org/1999/xlink" xml:space="preserve" xmlns:serif="http://www.serif.com/" style="fill-rule:evenodd;clip-rule:evenodd;stroke-linejoin:round;stroke-miterlimit:2;"><rect id="Plan-de-travail1" serif:id="Plan de travail1" x="0" y="0" width="90" height="90" style="fill:none;"/><clipPath id="_clip1"><rect id="jira" x="2.502" y="0" width="84.996" height="90"/></clipPath><g clip-path="url(#_clip1)"><path d="M86.457,42.511l-41.975,-41.976l-28.807,28.807l-13.173,13.169c-1.361,1.367 -1.361,3.611 -0,4.978l26.318,26.318l15.662,15.658l28.803,-28.807l0.448,-0.445l12.724,-12.704c0.666,-0.661 1.041,-1.561 1.041,-2.499c0,-0.938 -0.375,-1.838 -1.041,-2.499Zm-41.975,15.638l-13.149,-13.149l13.149,-13.149l13.145,13.149l-13.145,13.149Z" style="fill:#2684ff;fill-rule:nonzero;"/><path d="M44.482,31.851c-8.552,-8.55 -8.595,-22.607 -0.096,-31.209l-28.771,28.76l15.658,15.658l13.209,-13.209Z" style="fill:url(#_Linear2);fill-rule:nonzero;"/><path d="M57.662,44.964l-13.18,13.185c8.586,8.588 8.586,22.72 -0,31.308l28.85,-28.835l-15.67,-15.658Z" style="fill:url(#_Linear3);fill-rule:nonzero;"/></g><defs><linearGradient id="_Linear2" x1="0" y1="0" x2="1" y2="0" gradientUnits="userSpaceOnUse" gradientTransform="matrix(-18.3617,18.3577,-18.3577,-18.3617,42.1274,17.4773)"><stop offset="0" style="stop-color:#0052cc;stop-opacity:1"/><stop offset="0.18" style="stop-color:#0052cc;stop-opacity:1"/><stop offset="1" style="stop-color:#2684ff;stop-opacity:1"/></linearGradient><linearGradient id="_Linear3" x1="0" y1="0" x2="1" y2="0" gradientUnits="userSpaceOnUse" gradientTransform="matrix(1331.74,2053.34,-2053.34,1331.74,3352.21,3861.11)"><stop offset="0" style="stop-color:#0052cc;stop-opacity:1"/><stop offset="0.18" style="stop-color:#0052cc;stop-opacity:1"/><stop offset="1" style="stop-color:#2684ff;stop-opacity:1"/></linearGradient></defs></svg>