<?xml version="1.0" encoding="UTF-8" standalone="no"?><!DOCTYPE svg PUBLIC "-//W3C//DTD SVG 1.1//EN" "http://www.w3.org/Graphics/SVG/1.1/DTD/svg11.dtd"><svg width="100%" height="100%" viewBox="0 0 301 65" version="1.1" xmlns="http://www.w3.org/2000/svg" xmlns:xlink="http://www.w3.org/1999/xlink" xml:space="preserve" xmlns:serif="http://www.serif.com/" style="fill-rule:evenodd;clip-rule:evenodd;stroke-linejoin:round;stroke-miterlimit:2;"><g id="microsoft"><path d="M300.976,29.068l-0,-5.293l-6.573,-0l-0,-8.229l-0.222,0.068l-6.173,1.889l-0.122,0.037l-0,6.235l-9.745,0l0,-3.473c0,-1.618 0.362,-2.855 1.075,-3.681c0.707,-0.815 1.72,-1.23 3.011,-1.23c0.928,0 1.889,0.219 2.857,0.65l0.242,0.108l0,-5.574l-0.114,-0.042c-0.902,-0.324 -2.13,-0.488 -3.651,-0.488c-1.917,0 -3.659,0.417 -5.178,1.244c-1.52,0.828 -2.716,2.01 -3.554,3.513c-0.834,1.502 -1.258,3.235 -1.258,5.154l-0,3.819l-4.577,-0l0,5.293l4.577,-0l-0,22.299l6.57,-0l0,-22.299l9.745,-0l-0,14.17c-0,5.837 2.753,8.794 8.182,8.794c0.892,0 1.831,-0.104 2.79,-0.309c0.976,-0.21 1.64,-0.42 2.032,-0.644l0.086,-0.052l-0,-5.342l-0.267,0.177c-0.357,0.238 -0.801,0.432 -1.322,0.576c-0.522,0.147 -0.959,0.221 -1.297,0.221c-1.272,-0 -2.213,-0.343 -2.797,-1.019c-0.59,-0.683 -0.89,-1.876 -0.89,-3.545l-0,-13.027l6.573,-0Zm-48.655,17.592c-2.385,-0 -4.265,-0.791 -5.59,-2.349c-1.333,-1.565 -2.009,-3.797 -2.009,-6.633c0,-2.926 0.676,-5.216 2.01,-6.809c1.326,-1.582 3.188,-2.386 5.536,-2.386c2.278,0 4.091,0.767 5.391,2.282c1.305,1.522 1.968,3.793 1.968,6.753c-0,2.996 -0.623,5.298 -1.852,6.838c-1.22,1.528 -3.055,2.304 -5.454,2.304m0.292,-23.55c-4.55,0 -8.163,1.333 -10.74,3.963c-2.575,2.629 -3.88,6.268 -3.88,10.817c-0,4.32 1.274,7.795 3.788,10.326c2.514,2.533 5.935,3.816 10.167,3.816c4.41,-0 7.952,-1.352 10.528,-4.018c2.575,-2.663 3.88,-6.268 3.88,-10.71c-0,-4.387 -1.225,-7.888 -3.64,-10.403c-2.417,-2.516 -5.817,-3.791 -10.103,-3.791m-25.214,0c-3.095,0 -5.655,0.792 -7.611,2.353c-1.967,1.57 -2.965,3.629 -2.965,6.121c-0,1.295 0.215,2.446 0.639,3.422c0.427,0.979 1.087,1.841 1.964,2.565c0.87,0.717 2.213,1.469 3.993,2.234c1.497,0.616 2.613,1.137 3.322,1.547c0.693,0.402 1.184,0.807 1.462,1.201c0.27,0.385 0.407,0.913 0.407,1.564c-0,1.854 -1.388,2.756 -4.245,2.756c-1.059,-0 -2.268,-0.222 -3.592,-0.658c-1.314,-0.429 -2.555,-1.058 -3.678,-1.865l-0.273,-0.196l0,6.326l0.1,0.047c0.93,0.429 2.102,0.791 3.484,1.076c1.378,0.285 2.631,0.43 3.72,0.43c3.358,-0 6.063,-0.796 8.036,-2.366c1.986,-1.581 2.992,-3.689 2.992,-6.267c0,-1.86 -0.541,-3.455 -1.609,-4.741c-1.061,-1.276 -2.902,-2.447 -5.47,-3.482c-2.045,-0.822 -3.356,-1.503 -3.896,-2.026c-0.522,-0.506 -0.786,-1.221 -0.786,-2.126c-0,-0.802 0.326,-1.445 0.997,-1.966c0.676,-0.523 1.616,-0.789 2.796,-0.789c1.095,0 2.215,0.173 3.329,0.512c1.113,0.339 2.091,0.793 2.907,1.348l0.268,0.183l0,-6l-0.103,-0.044c-0.753,-0.323 -1.746,-0.6 -2.952,-0.824c-1.2,-0.223 -2.289,-0.335 -3.236,-0.335m-27.705,23.55c-2.384,-0 -4.265,-0.791 -5.59,-2.349c-1.333,-1.565 -2.008,-3.797 -2.008,-6.633c0,-2.926 0.676,-5.216 2.01,-6.809c1.324,-1.582 3.186,-2.386 5.535,-2.386c2.278,0 4.091,0.767 5.391,2.282c1.306,1.522 1.968,3.793 1.968,6.753c-0,2.996 -0.623,5.298 -1.852,6.838c-1.22,1.528 -3.054,2.304 -5.454,2.304m0.293,-23.55c-4.551,0 -8.165,1.333 -10.74,3.963c-2.575,2.629 -3.882,6.268 -3.882,10.817c0,4.322 1.276,7.795 3.789,10.326c2.514,2.533 5.935,3.816 10.167,3.816c4.41,-0 7.953,-1.352 10.528,-4.018c2.575,-2.663 3.88,-6.268 3.88,-10.71c0,-4.387 -1.224,-7.888 -3.641,-10.403c-2.417,-2.516 -5.816,-3.791 -10.101,-3.791m-24.595,5.443l-0,-4.778l-6.491,-0l0,27.591l6.491,0l-0,-14.114c-0,-2.4 0.544,-4.371 1.618,-5.861c1.06,-1.471 2.472,-2.217 4.197,-2.217c0.585,0 1.241,0.097 1.952,0.287c0.703,0.19 1.213,0.396 1.513,0.612l0.273,0.198l-0,-6.543l-0.105,-0.046c-0.605,-0.256 -1.46,-0.386 -2.542,-0.386c-1.631,0 -3.09,0.524 -4.34,1.556c-1.098,0.907 -1.891,2.15 -2.497,3.701l-0.069,0Zm-18.114,-5.443c-2.977,0 -5.633,0.639 -7.892,1.897c-2.264,1.262 -4.015,3.063 -5.206,5.353c-1.185,2.285 -1.788,4.953 -1.788,7.929c0,2.607 0.584,5 1.738,7.108c1.154,2.112 2.788,3.765 4.857,4.911c2.065,1.144 4.452,1.724 7.095,1.724c3.085,0 5.718,-0.616 7.83,-1.832l0.085,-0.049l-0,-5.946l-0.273,0.199c-0.956,0.696 -2.025,1.252 -3.175,1.653c-1.147,0.4 -2.193,0.603 -3.11,0.603c-2.547,-0 -4.591,-0.797 -6.075,-2.368c-1.488,-1.573 -2.242,-3.782 -2.242,-6.562c0,-2.797 0.787,-5.063 2.337,-6.734c1.545,-1.667 3.593,-2.513 6.087,-2.513c2.133,0 4.212,0.723 6.179,2.149l0.272,0.198l-0,-6.265l-0.088,-0.05c-0.74,-0.414 -1.75,-0.756 -3.003,-1.016c-1.247,-0.258 -2.468,-0.389 -3.628,-0.389m-19.356,0.665l-6.49,0l0,27.591l6.49,0l0,-27.591Zm-3.178,-11.754c-1.069,0 -2,0.364 -2.766,1.084c-0.768,0.723 -1.158,1.633 -1.158,2.707c-0,1.056 0.385,1.95 1.146,2.653c0.757,0.701 1.691,1.057 2.778,1.057c1.086,-0 2.024,-0.356 2.79,-1.056c0.77,-0.704 1.161,-1.597 1.161,-2.654c-0,-1.037 -0.38,-1.937 -1.13,-2.678c-0.748,-0.739 -1.698,-1.113 -2.821,-1.113m-16.194,9.718l-0,29.627l6.623,0l0,-38.5l-9.167,-0l-11.652,28.597l-11.308,-28.597l-9.541,-0l-0,38.5l6.224,-0l0,-29.63l0.214,0l11.941,29.63l4.697,0l11.755,-29.627l0.214,0Z" style="fill:#fff;fill-rule:nonzero;"/><rect x="0" y="-0" width="30.532" height="30.532" style="fill:#f1511b;fill-rule:nonzero;"/><rect x="33.712" y="-0" width="30.532" height="30.532" style="fill:#80cc28;fill-rule:nonzero;"/><rect x="0" y="33.723" width="30.531" height="30.532" style="fill:#00adef;fill-rule:nonzero;"/><rect x="33.712" y="33.723" width="30.532" height="30.532" style="fill:#fbbc09;fill-rule:nonzero;"/></g></svg>