<?xml version="1.0" encoding="UTF-8" standalone="no"?><!DOCTYPE svg PUBLIC "-//W3C//DTD SVG 1.1//EN" "http://www.w3.org/Graphics/SVG/1.1/DTD/svg11.dtd"><svg width="100%" height="100%" viewBox="0 0 90 90" version="1.1" xmlns="http://www.w3.org/2000/svg" xmlns:xlink="http://www.w3.org/1999/xlink" xml:space="preserve" xmlns:serif="http://www.serif.com/" style="fill-rule:evenodd;clip-rule:evenodd;stroke-linejoin:round;stroke-miterlimit:2;"><rect id="Plan-de-travail1" serif:id="Plan de travail1" x="0" y="0" width="90" height="90" style="fill:none;"/><clipPath id="_clip1"><rect x="0" y="0" width="90" height="90"/></clipPath><g clip-path="url(#_clip1)"><path id="mysql" d="M82.894,69.728c-4.899,-0.127 -8.692,0.376 -11.876,1.751c-0.919,0.374 -2.381,0.374 -2.509,1.56c0.497,0.502 0.554,1.311 0.985,2.003c0.734,1.249 2.014,2.929 3.182,3.806c1.283,1.003 2.571,1.996 3.921,2.871c2.381,1.503 5.079,2.377 7.4,3.875c1.351,0.872 2.695,1.998 4.048,2.937c0.665,0.499 1.092,1.31 1.955,1.623l-0,-0.191c-0.433,-0.561 -0.555,-1.374 -0.98,-1.999l-1.838,-1.809c-1.776,-2.435 -3.983,-4.56 -6.364,-6.306c-1.96,-1.378 -6.246,-3.25 -7.041,-5.554l-0.124,-0.127c1.346,-0.129 2.944,-0.627 4.224,-1.01c2.082,-0.561 3.981,-0.433 6.118,-0.994c0.983,-0.25 1.958,-0.565 2.944,-0.874l0,-0.564c-1.107,-1.125 -1.897,-2.62 -3.062,-3.683c-3.117,-2.747 -6.551,-5.434 -10.1,-7.683c-1.9,-1.253 -4.345,-2.059 -6.369,-3.124c-0.729,-0.376 -1.958,-0.561 -2.387,-1.187c-1.098,-1.374 -1.716,-3.183 -2.512,-4.81c-1.769,-3.433 -3.488,-7.242 -5.015,-10.872c-1.105,-2.435 -1.776,-4.866 -3.123,-7.118c-6.309,-10.618 -13.159,-17.048 -23.688,-23.36c-2.263,-1.315 -4.955,-1.875 -7.831,-2.564l-4.592,-0.247c-0.98,-0.438 -1.962,-1.627 -2.817,-2.189c-3.493,-2.247 -12.487,-7.118 -15.056,-0.687c-1.655,4.065 2.448,8.061 3.857,10.123c1.04,1.431 2.389,3.06 3.116,4.685c0.431,1.062 0.553,2.189 0.983,3.31c0.98,2.749 1.896,5.808 3.184,8.372c0.672,1.308 1.404,2.682 2.263,3.866c0.491,0.692 1.347,0.998 1.534,2.127c-0.854,1.244 -0.921,3.122 -1.411,4.684c-2.202,7.057 -1.342,15.8 1.779,20.987c0.977,1.562 3.307,5 6.423,3.682c2.759,-1.124 2.148,-4.683 2.941,-7.805c0.182,-0.754 0.062,-1.249 0.43,-1.744l-0,0.122c0.853,1.747 1.715,3.431 2.506,5.183c1.899,3.059 5.206,6.246 7.96,8.364c1.467,1.13 2.628,3.063 4.465,3.754l0,-0.187l-0.121,-0c-0.372,-0.561 -0.916,-0.811 -1.404,-1.246c-1.105,-1.125 -2.327,-2.5 -3.184,-3.747c-2.566,-3.5 -4.837,-7.374 -6.852,-11.372c-0.986,-1.939 -1.837,-4.06 -2.632,-5.996c-0.37,-0.747 -0.37,-1.874 -0.984,-2.25c-0.921,1.372 -2.263,2.561 -2.935,4.243c-1.165,2.691 -1.286,6 -1.719,9.441l-0.24,0.12c-1.95,-0.5 -2.629,-2.558 -3.369,-4.306c-1.834,-4.437 -2.142,-11.56 -0.551,-16.68c0.426,-1.309 2.27,-5.432 1.534,-6.68c-0.369,-1.195 -1.594,-1.876 -2.266,-2.817c-0.79,-1.184 -1.655,-2.682 -2.206,-3.996c-1.468,-3.497 -2.207,-7.371 -3.788,-10.866c-0.739,-1.628 -2.022,-3.314 -3.061,-4.813c-1.166,-1.686 -2.449,-2.873 -3.372,-4.871c-0.304,-0.687 -0.732,-1.811 -0.242,-2.558c0.12,-0.502 0.369,-0.689 0.857,-0.815c0.793,-0.683 3.059,0.186 3.854,0.562c2.269,0.937 4.166,1.811 6.06,3.122c0.857,0.627 1.777,1.814 2.876,2.127l1.288,-0c1.955,0.435 4.158,0.12 5.998,0.685c3.243,1.064 6.181,2.624 8.816,4.308c8.017,5.188 14.628,12.56 19.091,21.365c0.733,1.435 1.044,2.749 1.713,4.245c1.289,3.064 2.883,6.187 4.163,9.185c1.286,2.935 2.512,5.931 4.349,8.369c0.916,1.311 4.596,1.998 6.246,2.685c1.22,0.56 3.121,1.058 4.222,1.746c2.083,1.309 4.157,2.812 6.115,4.252c0.975,0.749 4.039,2.311 4.221,3.561m-62.437,-54.281c-0.845,-0.009 -1.688,0.096 -2.505,0.314l-0,0.125l0.118,0c0.493,0.998 1.35,1.691 1.961,2.562c0.493,1.001 0.921,1.995 1.404,2.995l0.118,-0.124c0.864,-0.624 1.293,-1.624 1.293,-3.124c-0.372,-0.441 -0.429,-0.872 -0.739,-1.311c-0.361,-0.625 -1.155,-0.936 -1.65,-1.437" style="fill:#5d87a1;fill-rule:nonzero;"/></g></svg>