<?xml version="1.0" encoding="UTF-8" standalone="no"?><!DOCTYPE svg PUBLIC "-//W3C//DTD SVG 1.1//EN" "http://www.w3.org/Graphics/SVG/1.1/DTD/svg11.dtd"><svg width="100%" height="100%" viewBox="0 0 90 90" version="1.1" xmlns="http://www.w3.org/2000/svg" xmlns:xlink="http://www.w3.org/1999/xlink" xml:space="preserve" xmlns:serif="http://www.serif.com/" style="fill-rule:evenodd;clip-rule:evenodd;stroke-linejoin:round;stroke-miterlimit:2;"><rect id="Plan-de-travail1" serif:id="Plan de travail1" x="0" y="0" width="90" height="90" style="fill:none;"/><g><ellipse cx="45" cy="44.87" rx="45" ry="23.425" style="fill:#8993be;"/><path d="M12.637,58.74l4.932,-24.966l11.403,-0c4.932,0.308 7.397,2.774 7.397,7.089c0,7.397 -5.855,11.712 -11.096,11.404l-5.547,0l-1.233,6.473l-5.856,-0Zm8.322,-11.096l1.541,-9.247l4.007,0c2.157,0 3.698,0.925 3.698,2.774c-0.308,5.24 -2.774,6.165 -5.547,6.473l-3.699,0Zm14.265,4.623l4.931,-24.965l5.856,-0l-1.232,6.472l5.547,-0c4.932,0.308 6.781,2.774 6.165,5.856l-2.158,12.637l-6.164,0l2.158,-11.404c0.307,-1.541 0.307,-2.466 -1.85,-2.466l-4.623,0l-2.774,13.87l-5.856,0Zm18.714,6.473l4.932,-24.966l11.404,-0c4.932,0.308 7.397,2.774 7.397,7.089c0,7.397 -5.856,11.712 -11.096,11.404l-5.548,0l-1.233,6.473l-5.856,-0Zm8.322,-11.096l1.541,-9.247l4.007,0c2.158,0 3.699,0.925 3.699,2.774c-0.308,5.24 -2.774,6.165 -5.548,6.473l-3.699,0Z" style="fill:#232531;"/></g></svg>