<?xml version="1.0" encoding="UTF-8" standalone="no"?><!DOCTYPE svg PUBLIC "-//W3C//DTD SVG 1.1//EN" "http://www.w3.org/Graphics/SVG/1.1/DTD/svg11.dtd"><svg width="100%" height="100%" viewBox="0 0 90 90" version="1.1" xmlns="http://www.w3.org/2000/svg" xmlns:xlink="http://www.w3.org/1999/xlink" xml:space="preserve" xmlns:serif="http://www.serif.com/" style="fill-rule:evenodd;clip-rule:evenodd;stroke-linejoin:round;stroke-miterlimit:2;"><rect id="Plan-de-travail1" serif:id="Plan de travail1" x="0" y="0" width="90" height="90" style="fill:none;"/><g id="Layer_2"><g id="Surfaces"><g id="Photo_Surface"><g id="Outline_no_shadow"><path d="M90,17.063c0,-8.797 -7.141,-15.938 -15.937,-15.938l-58.126,0c-8.796,0 -15.937,7.141 -15.937,15.938l0,55.874c0,8.797 7.141,15.938 15.937,15.938l58.126,-0c8.796,-0 15.937,-7.141 15.937,-15.938l0,-55.874Z" style="fill:#001e36;"/></g></g></g><g id="Outlined_Mnemonics_Logos"><g id="Ps"><path d="M20.266,62.661l-0,-38.58c-0,-0.281 0.12,-0.423 0.362,-0.423c0.643,0 1.231,-0.009 2.116,-0.03c0.885,-0.02 1.841,-0.04 2.868,-0.06c1.027,-0.02 2.114,-0.04 3.261,-0.06c1.147,-0.02 2.284,-0.03 3.411,-0.031c3.058,0 5.634,0.383 7.728,1.147c1.888,0.639 3.61,1.691 5.041,3.08c1.213,1.203 2.15,2.655 2.747,4.256c0.565,1.558 0.851,3.203 0.845,4.86c0,3.221 -0.744,5.877 -2.233,7.97c-1.499,2.1 -3.607,3.692 -6.038,4.558c-2.536,0.946 -5.354,1.267 -8.452,1.267c-0.886,0 -1.51,-0.01 -1.872,-0.03c-0.362,-0.02 -0.906,-0.03 -1.63,-0.03l-0,12.045c0.003,0.023 0.005,0.046 0.005,0.068c-0,0.264 -0.217,0.481 -0.481,0.481c-0.022,-0 -0.045,-0.002 -0.068,-0.005l-7.188,-0c-0.282,-0 -0.422,-0.161 -0.422,-0.483Zm8.154,-31.758l-0,12.584c0.522,0.04 1.005,0.06 1.449,0.06l1.992,-0c1.466,-0.005 2.922,-0.237 4.317,-0.689c1.196,-0.355 2.265,-1.047 3.079,-1.993c0.785,-0.925 1.177,-2.213 1.177,-3.864c0.032,-1.167 -0.272,-2.32 -0.875,-3.32c-0.635,-0.967 -1.552,-1.716 -2.626,-2.144c-1.404,-0.545 -2.903,-0.802 -4.408,-0.754c-0.966,-0 -1.821,0.01 -2.566,0.03c-0.745,0.021 -1.258,0.051 -1.539,0.09Z" style="fill:#31a8ff;fill-rule:nonzero;"/><path d="M71.989,41.199c-1.134,-0.583 -2.343,-1.01 -3.592,-1.268c-1.377,-0.316 -2.784,-0.478 -4.196,-0.483c-0.764,-0.021 -1.527,0.071 -2.264,0.271c-0.47,0.105 -0.887,0.372 -1.178,0.755c-0.196,0.306 -0.301,0.663 -0.301,1.026c0.011,0.354 0.138,0.693 0.362,0.966c0.352,0.413 0.783,0.752 1.268,0.997c0.86,0.463 1.747,0.876 2.656,1.237c2.026,0.679 3.963,1.601 5.766,2.747c1.228,0.776 2.245,1.844 2.958,3.11c0.6,1.198 0.901,2.524 0.876,3.864c0.036,1.769 -0.47,3.507 -1.449,4.981c-1.049,1.496 -2.506,2.659 -4.196,3.35c-1.832,0.805 -4.096,1.208 -6.793,1.208c-1.712,0.017 -3.422,-0.145 -5.101,-0.483c-1.323,-0.243 -2.611,-0.648 -3.834,-1.208c-0.269,-0.138 -0.434,-0.422 -0.423,-0.724l0,-6.521c-0.014,-0.129 0.044,-0.257 0.151,-0.332c0.106,-0.06 0.239,-0.047 0.332,0.031c1.445,0.851 3.013,1.473 4.649,1.841c1.442,0.361 2.921,0.554 4.408,0.574c1.408,-0 2.444,-0.182 3.109,-0.544c0.612,-0.28 1.003,-0.897 0.996,-1.57c0,-0.522 -0.302,-1.025 -0.905,-1.509c-0.604,-0.483 -1.832,-1.067 -3.683,-1.751c-1.896,-0.66 -3.694,-1.574 -5.344,-2.717c-1.18,-0.82 -2.152,-1.906 -2.837,-3.169c-0.594,-1.19 -0.894,-2.505 -0.876,-3.834c-0.003,-1.597 0.436,-3.165 1.268,-4.528c0.949,-1.502 2.312,-2.697 3.925,-3.442c1.77,-0.885 3.984,-1.327 6.641,-1.328c1.556,-0.012 3.11,0.099 4.649,0.332c1.114,0.141 2.203,0.436 3.236,0.876c0.166,0.047 0.301,0.17 0.362,0.332c0.041,0.147 0.062,0.299 0.061,0.452l-0,6.098c0.008,0.145 -0.061,0.283 -0.181,0.363c-0.164,0.081 -0.356,0.081 -0.52,-0Z" style="fill:#31a8ff;fill-rule:nonzero;"/></g></g></g></svg>