<?xml version="1.0" encoding="UTF-8" standalone="no"?><!DOCTYPE svg PUBLIC "-//W3C//DTD SVG 1.1//EN" "http://www.w3.org/Graphics/SVG/1.1/DTD/svg11.dtd"><svg width="100%" height="100%" viewBox="0 0 90 90" version="1.1" xmlns="http://www.w3.org/2000/svg" xmlns:xlink="http://www.w3.org/1999/xlink" xml:space="preserve" xmlns:serif="http://www.serif.com/" style="fill-rule:evenodd;clip-rule:evenodd;stroke-linejoin:round;stroke-miterlimit:2;"><rect id="Plan-de-travail1" serif:id="Plan de travail1" x="0" y="0" width="90" height="90" style="fill:none;"/><g id="react"><path d="M90,45c0,-6.333 -7.333,-11.667 -19,-15c3,-11.667 2,-20.667 -3.333,-24c-1.334,-0.667 -2.667,-1 -4.334,-1c-5,0 -11.666,3.667 -18.333,10c-6.667,-6.333 -13,-10 -18.333,-10c-1.667,0 -3,0.333 -4.334,1c-5,3.333 -6,12.333 -3.333,24c-11.333,3.333 -19,9 -19,15c0,6.333 7.333,11.667 19,15c-2.667,11.667 -1.667,21 3.667,24c1.333,0.667 2.666,1 4.333,1c5,-0 11.667,-3.667 18.333,-10c6.667,6.333 13,10 18.334,10c1.666,-0 3,-0.333 4.333,-1c5.333,-3 6.333,-12.333 3.667,-24c11,-3.333 18.333,-9 18.333,-15Zm-26.667,-35.667c1,0 1.667,0 2,0.667c2.667,1.333 3.667,6.667 2.667,13.667c-0.333,1.666 -0.667,3.666 -1,5.333c-3.667,-1 -7.333,-1.333 -11.667,-2c-2.333,-3.333 -4.666,-6.333 -7.333,-9c6,-5.667 11.667,-8.667 15.333,-8.667Zm-6,42.667c-1.333,2.333 -2.666,4.667 -4.333,6.667c-2.667,0.333 -5.333,0.333 -8,0.333c-2.667,-0 -5.333,-0 -8,-0.333c-1.333,-2 -2.667,-4.334 -4.333,-6.667c-1.334,-2.333 -2.667,-4.667 -3.667,-7c1,-2.333 2.333,-4.667 3.667,-7c1.333,-2.333 3,-4.667 4.333,-7c2.667,-0.333 5.333,-0.333 8,-0.333c2.667,-0 5.333,-0 8,0.333c1.333,2 3,4.333 4.333,7c1.334,2.333 2.667,4.667 3.667,7c-1,2.333 -2.333,4.667 -3.667,7Zm6,-2c1,2.333 1.667,4.667 2.334,6.667c-2.334,0.666 -4.667,1 -7,1.333c0.666,-1.333 1.666,-2.667 2.333,-4c1,-1 1.667,-2.667 2.333,-4Zm-18.333,19c-1.667,-1.667 -3.333,-3.667 -4.667,-5.667l9.334,0c-1.334,2 -3,4 -4.667,5.667Zm-13.667,-10.667c-2.333,-0.333 -4.666,-0.666 -7,-1.333c0.667,-2.333 1.667,-4.667 2.334,-6.667c0.666,1.334 1.333,2.667 2.333,4c1,1.334 1.667,2.667 2.333,4Zm-4.666,-18.333c-1,-2.333 -1.667,-4.667 -2.667,-7c2.333,-0.667 4.667,-1 7.333,-1.333c-1,1.333 -1.666,2.666 -2.666,4c-0.334,1.666 -1,3 -2,4.333Zm18.333,-19c1.667,1.667 3,3.667 4.667,5.333l-9.334,0c1.667,-1.666 3.334,-3.666 4.667,-5.333Zm16,14.667c-1,-1.334 -1.667,-2.667 -2.667,-4c2.667,0.333 5,0.666 7.334,1.333c-0.667,2.333 -1.667,4.667 -2.667,7c-0.333,-1.333 -1,-2.667 -2,-4.333Zm-38.667,-12.334c-1,-7 0,-12 2.667,-13.666c0.667,-0.334 1.333,-0.667 2,-0.667c3.667,-0 9,3 15,8.667c-2.333,2.666 -5,5.666 -7.333,9c-4,0.333 -8,1 -11.667,2c-0.333,-1.667 -0.667,-3.667 -0.667,-5.334Zm-7.333,30.667c-6.333,-2.667 -10.667,-6.333 -10.667,-9c0,-3 4,-6.333 10.334,-9c1.666,-0.667 3.333,-1.333 5.333,-1.667c1,3.667 2.333,7.334 4.333,11c-1.666,3.667 -3,7.334 -4,10.667c-2,-0.667 -3.666,-1.333 -5.333,-2Zm9.667,26.333c-2.667,-1.333 -3.667,-6.666 -2.667,-13.666c0.333,-1.667 0.667,-3.667 1,-5.667c3.667,0.667 7.333,1.333 11.333,1.667c2.334,3.333 5,6.333 7.334,9c-6,5.666 -11.334,8.666 -15,8.666c-0.667,0.334 -1.334,0 -2,0Zm43.333,-13.666c1,7 0,12 -2.667,13.666c-0.666,0.334 -1.333,0.667 -2,0.667c-3.666,-0 -9,-3 -15,-8.667c2.667,-2.666 5,-5.666 7.334,-9c4,-0.333 8,-1 11.333,-1.666c0.333,1.333 0.667,3 1,5Zm7.333,-12.667c-1.666,0.667 -3.333,1.333 -5.333,1.667c-1,-3.334 -2.333,-7 -4,-10.667c1.667,-3.667 3,-7.333 4.333,-11c1.667,0.667 3.667,1 5.334,1.667c6.333,2.666 10.333,6 10.333,9c-0.333,3 -4.333,6.666 -10.667,9.333Z" style="fill:#58c3df;fill-rule:nonzero;"/><path d="M43.69,51.581c4.498,0 8.031,-3.533 8.031,-8.031c0,-4.497 -3.533,-8.031 -8.031,-8.031c-4.497,-0 -8.031,3.534 -8.031,8.031c-0,4.498 3.534,8.031 8.031,8.031Z" style="fill:#58c3df;fill-rule:nonzero;"/></g></svg>