<?xml version="1.0" encoding="UTF-8" standalone="no"?><!DOCTYPE svg PUBLIC "-//W3C//DTD SVG 1.1//EN" "http://www.w3.org/Graphics/SVG/1.1/DTD/svg11.dtd"><svg width="100%" height="100%" viewBox="0 0 90 90" version="1.1" xmlns="http://www.w3.org/2000/svg" xmlns:xlink="http://www.w3.org/1999/xlink" xml:space="preserve" xmlns:serif="http://www.serif.com/" style="fill-rule:evenodd;clip-rule:evenodd;stroke-linejoin:round;stroke-miterlimit:2;"><rect id="Plan-de-travail1" serif:id="Plan de travail1" x="0" y="0" width="90" height="90" style="fill:none;"/><clipPath id="_clip1"><rect x="0" y="0" width="90" height="90"/></clipPath><g clip-path="url(#_clip1)"><path id="sass" d="M77.476,50.008c-3.146,0.017 -5.871,0.773 -8.157,1.898c-0.843,-1.67 -1.687,-3.129 -1.828,-4.219c-0.158,-1.266 -0.352,-2.039 -0.158,-3.551c0.193,-1.512 1.072,-3.657 1.072,-3.832c-0.017,-0.159 -0.193,-0.932 -2.004,-0.95c-1.811,-0.017 -3.375,0.352 -3.551,0.827c-0.176,0.474 -0.527,1.564 -0.756,2.689c-0.316,1.653 -3.621,7.507 -5.502,10.583c-0.616,-1.195 -1.143,-2.25 -1.248,-3.094c-0.159,-1.266 -0.352,-2.039 -0.159,-3.551c0.194,-1.512 1.073,-3.657 1.073,-3.832c-0.018,-0.159 -0.194,-0.932 -2.004,-0.95c-1.811,-0.017 -3.376,0.352 -3.552,0.827c-0.175,0.474 -0.369,1.599 -0.755,2.689c-0.37,1.09 -4.765,10.865 -5.907,13.414c-0.58,1.3 -1.09,2.338 -1.459,3.041c-0.369,0.703 -0.018,0.053 -0.053,0.123c-0.316,0.598 -0.492,0.932 -0.492,0.932l-0,0.017c-0.246,0.44 -0.51,0.862 -0.633,0.862c-0.088,-0 -0.264,-1.178 0.035,-2.796c0.65,-3.392 2.233,-8.684 2.215,-8.877c0,-0.088 0.299,-1.02 -1.02,-1.495c-1.283,-0.474 -1.74,0.317 -1.845,0.317c-0.106,-0 -0.194,0.281 -0.194,0.281c0,0 1.424,-5.959 -2.725,-5.959c-2.601,-0 -6.188,2.83 -7.963,5.414c-1.125,0.616 -3.516,1.916 -6.048,3.305c-0.967,0.528 -1.969,1.09 -2.918,1.6l-0.193,-0.211c-5.028,-5.362 -14.328,-9.159 -13.941,-16.367c0.141,-2.619 1.055,-9.528 17.861,-17.896c13.765,-6.856 24.787,-4.975 26.704,-0.791c2.724,5.977 -5.89,17.088 -20.2,18.687c-5.449,0.616 -8.315,-1.494 -9.035,-2.285c-0.756,-0.826 -0.862,-0.861 -1.143,-0.703c-0.457,0.246 -0.176,0.984 -0,1.424c0.422,1.107 2.18,3.076 5.168,4.061c2.62,0.861 9.019,1.336 16.754,-1.653c8.666,-3.358 15.435,-12.675 13.448,-20.463c-2.022,-7.928 -15.171,-10.53 -27.6,-6.117c-7.401,2.637 -15.417,6.75 -21.183,12.147c-6.856,6.399 -7.946,11.99 -7.489,14.31c1.599,8.28 13.009,13.677 17.579,17.668c-0.228,0.123 -0.439,0.246 -0.633,0.351c-2.285,1.125 -10.987,5.678 -13.167,10.495c-2.461,5.45 0.387,9.37 2.286,9.898c5.871,1.635 11.883,-1.301 15.136,-6.136c3.234,-4.834 2.848,-11.11 1.353,-13.975l-0.052,-0.106l1.793,-1.055c1.16,-0.685 2.303,-1.318 3.305,-1.863c-0.563,1.529 -0.967,3.34 -1.178,5.977c-0.246,3.094 1.02,7.102 2.69,8.684c0.738,0.686 1.617,0.703 2.162,0.703c1.934,0 2.813,-1.599 3.779,-3.515c1.196,-2.339 2.251,-5.046 2.251,-5.046c-0,0 -1.319,7.331 2.285,7.331c1.319,-0 2.637,-1.705 3.235,-2.584l-0,0.017c-0,0 0.035,-0.053 0.105,-0.176c0.141,-0.211 0.211,-0.334 0.211,-0.334l0,-0.035c0.528,-0.914 1.705,-3.006 3.463,-6.469c2.268,-4.465 4.448,-10.056 4.448,-10.056c-0,0 0.211,1.372 0.861,3.622c0.387,1.336 1.231,2.795 1.881,4.219c-0.527,0.738 -0.843,1.16 -0.843,1.16l0.017,0.018c-0.422,0.562 -0.896,1.16 -1.389,1.758c-1.793,2.144 -3.937,4.588 -4.219,5.291c-0.334,0.826 -0.263,1.442 0.387,1.934c0.475,0.352 1.318,0.422 2.215,0.352c1.617,-0.106 2.742,-0.51 3.305,-0.756c0.879,-0.317 1.881,-0.791 2.848,-1.495c1.758,-1.301 2.83,-3.146 2.725,-5.608c-0.053,-1.353 -0.492,-2.689 -1.037,-3.955c0.158,-0.229 0.316,-0.457 0.474,-0.703c2.778,-4.061 4.923,-8.526 4.923,-8.526c-0,-0 0.21,1.371 0.861,3.621c0.334,1.143 1.002,2.391 1.6,3.622c-2.602,2.127 -4.237,4.588 -4.8,6.205c-1.037,2.989 -0.228,4.342 1.301,4.659c0.686,0.14 1.67,-0.176 2.409,-0.492c0.914,-0.299 2.021,-0.809 3.041,-1.565c1.758,-1.301 3.446,-3.112 3.358,-5.555c-0.053,-1.125 -0.352,-2.233 -0.756,-3.288c2.215,-0.914 5.08,-1.441 8.719,-1.002c7.823,0.914 9.37,5.802 9.071,7.841c-0.298,2.039 -1.933,3.164 -2.478,3.516c-0.545,0.334 -0.721,0.457 -0.668,0.703c0.07,0.369 0.316,0.352 0.791,0.281c0.65,-0.105 4.113,-1.67 4.254,-5.432c0.211,-4.834 -4.377,-10.108 -12.517,-10.055Zm-60.333,20.339c-2.584,2.831 -6.223,3.903 -7.77,2.989c-1.67,-0.967 -1.02,-5.133 2.162,-8.14c1.934,-1.828 4.448,-3.516 6.1,-4.553c0.369,-0.228 0.932,-0.562 1.6,-0.967c0.105,-0.07 0.176,-0.105 0.176,-0.105c0.123,-0.07 0.263,-0.158 0.404,-0.246c1.178,4.289 0.053,8.051 -2.672,11.022Zm18.898,-12.851c-0.897,2.198 -2.795,7.841 -3.938,7.525c-0.984,-0.264 -1.582,-4.536 -0.193,-8.755c0.703,-2.127 2.197,-4.659 3.076,-5.643c1.424,-1.582 2.971,-2.11 3.358,-1.459c0.457,0.844 -1.74,6.961 -2.303,8.332Zm15.593,7.454c-0.387,0.194 -0.738,0.334 -0.896,0.229c-0.123,-0.071 0.158,-0.334 0.158,-0.334c-0,-0 1.951,-2.092 2.725,-3.059c0.439,-0.563 0.967,-1.213 1.529,-1.951l0,0.211c0,2.531 -2.426,4.219 -3.516,4.904Zm12.025,-2.742c-0.282,-0.211 -0.246,-0.862 0.703,-2.901c0.369,-0.808 1.213,-2.162 2.672,-3.445c0.176,0.527 0.281,1.037 0.264,1.511c-0.018,3.165 -2.268,4.343 -3.639,4.835Z" style="fill:#cf649a;fill-rule:nonzero;"/></g></svg>