<?xml version="1.0" encoding="UTF-8" standalone="no"?><!DOCTYPE svg PUBLIC "-//W3C//DTD SVG 1.1//EN" "http://www.w3.org/Graphics/SVG/1.1/DTD/svg11.dtd"><svg width="100%" height="100%" viewBox="0 0 90 90" version="1.1" xmlns="http://www.w3.org/2000/svg" xmlns:xlink="http://www.w3.org/1999/xlink" xml:space="preserve" xmlns:serif="http://www.serif.com/" style="fill-rule:evenodd;clip-rule:evenodd;stroke-linejoin:round;stroke-miterlimit:2;"><rect id="Plan-de-travail1" serif:id="Plan de travail1" x="0" y="0" width="90" height="90" style="fill:none;"/><clipPath id="_clip1"><rect x="0" y="0" width="90" height="90"/></clipPath><g clip-path="url(#_clip1)"><g id="ts"><path d="M90,8.451c0,-4.664 -3.787,-8.451 -8.451,-8.451l-73.098,0c-4.664,0 -8.451,3.787 -8.451,8.451l0,73.098c0,4.664 3.787,8.451 8.451,8.451l73.098,-0c4.664,-0 8.451,-3.787 8.451,-8.451l0,-73.098Z" style="fill:#3178c6;"/><path d="M54.861,71.287l-0,9.078c1.476,0.757 3.222,1.325 5.238,1.703c2.016,0.378 4.141,0.567 6.374,0.567c2.177,0 4.245,-0.208 6.204,-0.624c1.959,-0.416 3.677,-1.102 5.154,-2.057c1.476,-0.955 2.645,-2.203 3.506,-3.745c0.861,-1.541 1.292,-3.446 1.292,-5.716c-0,-1.646 -0.246,-3.088 -0.739,-4.327c-0.492,-1.238 -1.201,-2.34 -2.129,-3.304c-0.927,-0.965 -2.039,-1.83 -3.336,-2.596c-1.297,-0.766 -2.759,-1.49 -4.387,-2.17c-1.192,-0.492 -2.262,-0.97 -3.208,-1.433c-0.946,-0.463 -1.751,-0.936 -2.413,-1.419c-0.663,-0.482 -1.174,-0.993 -1.534,-1.531c-0.359,-0.539 -0.539,-1.15 -0.539,-1.83c0,-0.624 0.161,-1.187 0.483,-1.688c0.322,-0.501 0.776,-0.932 1.362,-1.291c0.587,-0.359 1.306,-0.638 2.158,-0.837c0.852,-0.198 1.798,-0.298 2.84,-0.298c0.757,0 1.556,0.057 2.399,0.171c0.842,0.113 1.689,0.288 2.541,0.524c0.852,0.237 1.68,0.534 2.484,0.894c0.804,0.359 1.548,0.775 2.229,1.248l-0,-8.482c-1.382,-0.53 -2.891,-0.922 -4.528,-1.178c-1.638,-0.255 -3.516,-0.383 -5.637,-0.383c-2.158,0 -4.202,0.232 -6.132,0.695c-1.931,0.464 -3.63,1.187 -5.097,2.171c-1.467,0.983 -2.626,2.236 -3.478,3.758c-0.852,1.523 -1.278,3.344 -1.278,5.462c0,2.704 0.781,5.011 2.343,6.922c1.562,1.91 3.932,3.527 7.112,4.851c1.25,0.511 2.414,1.012 3.492,1.504c1.079,0.491 2.012,1.002 2.797,1.531c0.786,0.53 1.405,1.107 1.86,1.731c0.454,0.624 0.681,1.333 0.681,2.127c0,0.587 -0.142,1.131 -0.426,1.632c-0.284,0.501 -0.714,0.936 -1.291,1.305c-0.578,0.369 -1.297,0.657 -2.158,0.865c-0.861,0.208 -1.87,0.312 -3.024,0.312c-1.969,0 -3.918,-0.345 -5.849,-1.035c-1.931,-0.691 -3.719,-1.726 -5.366,-3.107Zm-15.132,-22.592l11.675,0l-0,-7.474l-32.54,-0l0,7.474l11.617,0l0,33.283l9.248,-0l0,-33.283Z" style="fill:#fff;"/></g></g></svg>