<?xml version="1.0" encoding="UTF-8" standalone="no"?><!DOCTYPE svg PUBLIC "-//W3C//DTD SVG 1.1//EN" "http://www.w3.org/Graphics/SVG/1.1/DTD/svg11.dtd"><svg width="100%" height="100%" viewBox="0 0 218 82" version="1.1" xmlns="http://www.w3.org/2000/svg" xmlns:xlink="http://www.w3.org/1999/xlink" xml:space="preserve" xmlns:serif="http://www.serif.com/" style="fill-rule:evenodd;clip-rule:evenodd;stroke-linejoin:round;stroke-miterlimit:2;"><path id="Layer" d="M33.746,19.49l-16.876,-9.745l-16.87,9.745l0,-9.745l16.873,-9.745l16.876,9.745l-0,9.745l-0.003,0Z" style="fill:#a435f0;fill-rule:nonzero;"/><path id="Layer1" serif:id="Layer" d="M8.839,27.674l-0,21.482c-0,5.55 4.143,8.256 8.034,8.256c3.926,-0 8.037,-2.778 8.037,-8.331l0,-21.407l8.839,-0l-0,21.994c-0,5.112 -1.607,9.057 -4.82,11.762c-3.217,2.704 -7.233,4.02 -12.13,4.02c-4.893,-0 -8.912,-1.315 -12.05,-4.02c-3.142,-2.703 -4.749,-6.501 -4.749,-11.544l0,-22.212l8.839,-0Zm101.326,26.697l6.565,3.791c-4.007,4.566 -9.347,7.214 -16.058,7.214c-5.771,0 -10.52,-1.754 -14.099,-5.188c-3.578,-3.436 -5.404,-8.038 -5.404,-13.812l-0,-0.289c-0,-5.847 1.826,-10.524 5.404,-14.103c3.654,-3.58 8.258,-5.334 13.881,-5.334c5.334,-0 9.716,1.754 13.074,5.334c3.434,3.579 5.116,7.965 5.116,13.226c-0,1.697 -0.193,3.504 -0.193,3.504l-28.558,-0c0.48,5.595 4.731,9.209 11.073,9.209c3.475,0 6.523,-1.168 9.199,-3.552Zm-16.797,-17.927c-1.885,1.465 -2.965,3.267 -3.25,5.405l19.602,0c-0.081,-2.068 -1.022,-3.869 -2.766,-5.334c-1.828,-1.609 -3.946,-2.412 -6.503,-2.412c-2.701,-0 -5.116,0.803 -7.084,2.338l0.001,0.003Zm105.772,33.896c-3.586,8.468 -7.337,11.35 -13.091,11.35l-3.986,-0l0,-7.837l3.222,-0c1.981,-0 3.82,-0.746 5.574,-4.792l1.753,-4.051l-15.122,-37.336l8.985,-0l10.739,26.89l11.031,-26.89l8.983,-0l-18.085,42.666l-0.003,-0Zm-130.982,-56.766l8.767,0l0,50.925l-8.767,-0l-0,-3.391c-1.998,1.843 -5.779,4.196 -11.76,4.196c-5.186,-0 -9.569,-1.829 -13.148,-5.483c-3.506,-3.727 -5.259,-8.256 -5.259,-13.739c-0,-5.48 1.753,-10.009 5.259,-13.663c3.579,-3.724 7.961,-5.551 13.148,-5.551c4.357,0 8.863,1.545 11.76,4.14l-0,-17.434Zm0.66,32.513c0,-3.217 -1.1,-5.919 -3.289,-8.039c-2.119,-2.119 -4.821,-3.215 -7.964,-3.215c-3.141,0 -5.696,1.096 -7.814,3.215c-2.045,2.12 -3.068,4.822 -3.068,8.039c0,3.215 1.025,5.918 3.068,8.038c2.118,2.118 4.673,3.217 7.814,3.217c3.143,-0 5.845,-1.099 7.964,-3.217c2.189,-2.12 3.289,-4.823 3.289,-8.038Zm95.043,-19.141c7.626,-0 12.785,5.156 12.785,14.757l0,22.796l-8.766,-0l-0,-21.556c-0,-5.039 -2.409,-8.182 -6.574,-8.182c-4.309,-0 -7.302,3.508 -7.302,8.549l0,21.191l-8.692,0l-0,-21.555c-0,-5.039 -2.409,-8.183 -6.577,-8.183c-4.088,0 -7.158,3.581 -7.158,8.549l0,21.192l-8.69,-0l0,-36.825l8.69,-0l0,3.83c1.552,-1.899 4.66,-4.566 9.935,-4.566c6.24,0 8.911,3.616 9.859,5.425c2.371,-2.662 5.832,-5.425 12.49,-5.425l0,0.003Z" style="fill:#fff;"/></svg>