<?xml version="1.0" encoding="UTF-8" standalone="no"?><!DOCTYPE svg PUBLIC "-//W3C//DTD SVG 1.1//EN" "http://www.w3.org/Graphics/SVG/1.1/DTD/svg11.dtd"><svg width="100%" height="100%" viewBox="0 0 90 90" version="1.1" xmlns="http://www.w3.org/2000/svg" xmlns:xlink="http://www.w3.org/1999/xlink" xml:space="preserve" xmlns:serif="http://www.serif.com/" style="fill-rule:evenodd;clip-rule:evenodd;"><rect id="Plan-de-travail1" serif:id="Plan de travail1" x="0" y="0" width="90" height="90" style="fill:none;"/><clipPath id="_clip1"><rect x="0" y="0" width="90" height="90"/></clipPath><g clip-path="url(#_clip1)"><path d="M90,13.5c-0,-7.451 -6.049,-13.5 -13.5,-13.5l-63,0c-7.451,0 -13.5,6.049 -13.5,13.5l-0,63c-0,7.451 6.049,13.5 13.5,13.5l63,-0c7.451,-0 13.5,-6.049 13.5,-13.5l-0,-63Z" style="fill:#21759b;"/><circle cx="45" cy="45" r="33.398" style="fill:none;stroke:#fff;stroke-width:3.52px;"/><path d="M35.859,76.641l9.844,-28.829l10.195,27.95l5.098,-2.813l9.844,-28.476c1.758,-4.571 2.285,-8.262 2.285,-11.426c0.176,-5.801 -2.285,-10.899 -6.504,-11.426c-3.867,-0.351 -5.976,3.34 -5.801,5.625c0.352,5.274 5.625,8.262 5.625,15.469c0,5.273 -3.34,13.535 -5.625,21.445l-11.425,-34.101c1.933,-0.176 3.691,-0.176 3.691,-0.176c1.758,-0.176 1.582,-2.813 -0.176,-2.637c-5.801,0.527 -11.074,0.352 -16.875,0c-1.758,-0.176 -1.933,2.461 -0.176,2.637c0,-0 1.582,-0 3.34,0.176l4.922,13.535l-7.031,20.918l-11.426,-34.453c1.934,-0.176 3.516,-0.176 3.516,-0.176c1.757,-0.176 1.582,-2.813 -0.176,-2.637c-5.274,0.352 -10.371,0.703 -11.602,-0.176l-1.582,4.395l15.469,42.715l4.57,2.461Z" style="fill:#fff;fill-rule:nonzero;"/></g></svg>