<?xml version="1.0" encoding="UTF-8" standalone="no"?><!DOCTYPE svg PUBLIC "-//W3C//DTD SVG 1.1//EN" "http://www.w3.org/Graphics/SVG/1.1/DTD/svg11.dtd"><svg width="100%" height="100%" viewBox="0 0 90 90" version="1.1" xmlns="http://www.w3.org/2000/svg" xmlns:xlink="http://www.w3.org/1999/xlink" xml:space="preserve" xmlns:serif="http://www.serif.com/" style="fill-rule:evenodd;clip-rule:evenodd;stroke-linejoin:round;stroke-miterlimit:2;"><rect id="Plan-de-travail1" serif:id="Plan de travail1" x="0" y="0" width="90" height="90" style="fill:none;"/><clipPath id="_clip1"><rect x="0" y="0" width="90" height="90"/></clipPath><g clip-path="url(#_clip1)"><g id="angular"><path d="M45,-0l-41.895,14.94l6.39,55.395l35.505,19.665l35.505,-19.665l6.39,-55.395l-41.895,-14.94Z" style="fill:#dd0031;fill-rule:nonzero;"/><path d="M45,9.945l-26.19,58.725l9.765,-0l5.265,-13.14l22.23,-0l5.265,13.14l9.765,-0l-26.1,-58.725Zm7.65,37.485l-15.3,-0l7.65,-18.405l7.65,18.405Z" style="fill:#f7f5e8;fill-rule:nonzero;"/><path d="M45,9.945l26.1,58.725l-9.765,-0l-5.265,-13.14l-11.07,-0l-0,34.47l35.505,-19.665l6.39,-55.395l-41.895,-14.94l-0,9.945Zm7.65,37.485l-7.65,-0l-0,-18.405l7.65,18.405Z" style="fill:#c3002f;fill-rule:nonzero;"/></g></g></svg>