<?xml version="1.0" encoding="UTF-8" standalone="no"?><!DOCTYPE svg PUBLIC "-//W3C//DTD SVG 1.1//EN" "http://www.w3.org/Graphics/SVG/1.1/DTD/svg11.dtd"><svg width="100%" height="100%" viewBox="0 0 90 90" version="1.1" xmlns="http://www.w3.org/2000/svg" xmlns:xlink="http://www.w3.org/1999/xlink" xml:space="preserve" xmlns:serif="http://www.serif.com/" style="fill-rule:evenodd;clip-rule:evenodd;stroke-linejoin:round;stroke-miterlimit:2;"><rect id="Plan-de-travail1" serif:id="Plan de travail1" x="0" y="0" width="90" height="90" style="fill:none;"/><g id="html"><path d="M12.882,80.627l-7.146,-80.157l78.528,0l-7.154,80.144l-32.158,8.916l-32.07,-8.903Z" style="fill:#e5532d;fill-rule:nonzero;"/><path d="M45,82.715l25.985,-7.204l6.114,-68.487l-32.099,0l-0,75.691Z" style="fill:#f16a30;fill-rule:nonzero;"/><g><path d="M45,36.753l-13.009,0l-0.898,-10.067l13.907,0l-0,-9.831l-24.651,0l0.235,2.638l2.416,27.091l22,0l-0,-9.831Zm-0,25.532l-0.043,0.012l-10.949,-2.957l-0.7,-7.84l-9.869,-0l1.378,15.436l20.138,5.59l0.045,-0.013l-0,-10.228Z" style="fill:#ebebeb;fill-rule:nonzero;"/></g><g><path d="M44.966,36.753l0,9.831l12.105,0l-1.141,12.75l-10.964,2.959l0,10.228l20.154,-5.585l0.147,-1.661l2.311,-25.882l0.24,-2.64l-22.852,0Zm0,-19.898l0,9.831l23.746,0l0.197,-2.209l0.448,-4.984l0.235,-2.638l-24.626,0Z" style="fill:#fff;fill-rule:nonzero;"/></g></g></svg>