<?xml version="1.0" encoding="UTF-8" standalone="no"?><!DOCTYPE svg PUBLIC "-//W3C//DTD SVG 1.1//EN" "http://www.w3.org/Graphics/SVG/1.1/DTD/svg11.dtd"><svg width="100%" height="100%" viewBox="0 0 90 90" version="1.1" xmlns="http://www.w3.org/2000/svg" xmlns:xlink="http://www.w3.org/1999/xlink" xml:space="preserve" xmlns:serif="http://www.serif.com/" style="fill-rule:evenodd;clip-rule:evenodd;stroke-linejoin:round;stroke-miterlimit:2;"><rect id="Plan-de-travail1" serif:id="Plan de travail1" x="0" y="0" width="90" height="90" style="fill:none;"/><g id="jquery"><path d="M5.272,61.298c0.086,0.195 0.183,0.375 0.288,0.555c0.049,0.105 0.117,0.213 0.177,0.311c0.097,0.195 0.202,0.382 0.303,0.57l0.589,0.99c0.109,0.184 0.214,0.364 0.338,0.544c0.206,0.352 0.45,0.697 0.663,1.05c0.098,0.146 0.188,0.292 0.297,0.438c0.412,0.642 0.787,1.174 1.188,1.692c0.285,0.386 0.57,0.765 0.878,1.143c0.101,0.143 0.214,0.285 0.319,0.428l0.828,1.005c0.102,0.116 0.203,0.251 0.312,0.371c0.367,0.443 0.757,0.87 1.147,1.305c0,0.008 0.011,0.015 0.019,0.026c0.484,0.608 1.005,1.148 1.575,1.628l0.015,0.015c0.3,0.307 0.6,0.611 0.919,0.911l0.379,0.364c0.416,0.39 0.832,0.776 1.271,1.151c0.007,0 0.011,0.008 0.019,0.011l0.213,0.188c0.383,0.334 0.769,0.664 1.163,0.971l0.469,0.394c0.318,0.255 0.648,0.495 0.975,0.746l0.51,0.39c0.348,0.263 0.72,0.518 1.076,0.773c0.131,0.094 0.262,0.187 0.397,0.274l0.109,0.086l1.054,0.69l0.45,0.3c0.551,0.352 1.099,0.682 1.646,1.012c0.158,0.079 0.315,0.165 0.461,0.255c0.405,0.233 0.825,0.469 1.234,0.683c0.225,0.127 0.458,0.236 0.69,0.352c0.281,0.158 0.574,0.312 0.874,0.469c0.082,0.026 0.15,0.053 0.217,0.09l0.015,-0.015c0.124,0.056 0.24,0.116 0.36,0.176c0.45,0.225 0.919,0.439 1.407,0.649c0.09,0.038 0.187,0.075 0.285,0.128c0.54,0.236 1.08,0.461 1.638,0.678c0.128,0.038 0.263,0.102 0.394,0.15c0.506,0.192 1.028,0.387 1.545,0.57l0.188,0.068c0.573,0.195 1.14,0.382 1.725,0.559c0.135,0.037 0.273,0.086 0.416,0.123c0.596,0.18 1.174,0.394 1.777,0.507c38.525,6.986 49.718,-23.048 49.718,-23.048c-9.405,12.187 -26.096,15.401 -41.902,11.824c-0.585,-0.135 -1.17,-0.323 -1.763,-0.495c-0.836,-0.237 -1.665,-0.498 -2.486,-0.784l0.356,0.109l-0.232,-0.09c-0.51,-0.173 -1.002,-0.364 -1.5,-0.555c-0.123,-0.052 -0.246,-0.1 -0.372,-0.143l-0.041,-0.011c-0.551,-0.221 -1.087,-0.446 -1.62,-0.683c-0.116,-0.037 -0.214,-0.09 -0.33,-0.135c-0.631,-0.274 -1.256,-0.562 -1.875,-0.862l0.517,0.229c-0.135,-0.06 -0.267,-0.125 -0.397,-0.195c-0.353,-0.165 -0.705,-0.353 -1.05,-0.529c-0.263,-0.125 -0.522,-0.257 -0.776,-0.398l0.075,0.038c-0.424,-0.225 -0.848,-0.469 -1.275,-0.698c-0.128,-0.09 -0.274,-0.165 -0.42,-0.247c-0.636,-0.369 -1.263,-0.752 -1.883,-1.148l0.236,0.143c-0.158,-0.098 -0.313,-0.202 -0.465,-0.311l0.023,0.015c-0.403,-0.248 -0.798,-0.508 -1.185,-0.78c-0.128,-0.083 -0.244,-0.173 -0.375,-0.263c-0.404,-0.276 -0.802,-0.561 -1.193,-0.855l0.09,0.064c-0.157,-0.128 -0.326,-0.248 -0.495,-0.371c-0.33,-0.259 -0.663,-0.507 -0.993,-0.777l-0.443,-0.352c-0.471,-0.375 -0.934,-0.762 -1.387,-1.159l-0.004,-0.004l-1.301,-1.181l-0.375,-0.352c-0.308,-0.312 -0.623,-0.608 -0.938,-0.915l-0.364,-0.375c-0.388,-0.385 -0.767,-0.779 -1.136,-1.182l-0.022,-0.026l-0.064,-0.052c-0.397,-0.437 -0.789,-0.878 -1.174,-1.324c-0.101,-0.116 -0.195,-0.24 -0.3,-0.364l-0.851,-1.031c-0.384,-0.482 -0.759,-0.971 -1.125,-1.466l-0.15,-0.21c-8.768,-11.911 -11.94,-28.347 -4.924,-41.832l-6.195,7.834c-7.969,11.396 -6.983,26.216 -0.889,38.318c0.139,0.296 0.293,0.573 0.443,0.855Z" style="fill:#1266a9;fill-rule:nonzero;"/><path d="M36.303,49.8l0.338,0.337c0.427,0.413 0.866,0.814 1.312,1.215l0.056,0.049c0.45,0.398 0.957,0.814 1.478,1.219l0.079,0.06c0.127,0.086 0.236,0.187 0.36,0.274c0.525,0.405 1.054,0.791 1.605,1.177l0.056,0.034c0.233,0.169 0.48,0.323 0.743,0.488c0.105,0.067 0.225,0.157 0.337,0.225c0.398,0.255 0.788,0.491 1.189,0.735c0.064,0.026 0.12,0.06 0.18,0.086c0.337,0.206 0.705,0.405 1.057,0.585c0.124,0.075 0.244,0.131 0.372,0.202c0.251,0.124 0.498,0.255 0.738,0.383l0.12,0.052c0.507,0.248 1.024,0.48 1.53,0.709c0.128,0.049 0.237,0.09 0.345,0.143c0.417,0.18 0.84,0.352 1.257,0.51c0.187,0.063 0.363,0.138 0.54,0.195c0.382,0.142 0.783,0.273 1.162,0.405l0.525,0.168c0.548,0.169 1.103,0.39 1.684,0.48c29.749,4.898 36.634,-17.891 36.634,-17.891c-6.199,8.876 -18.195,13.106 -30.979,9.802c-0.638,-0.16 -1.271,-0.342 -1.898,-0.543l0.214,0.06c-0.18,-0.049 -0.337,-0.105 -0.51,-0.158c-0.39,-0.135 -0.791,-0.266 -1.17,-0.405l-0.54,-0.202c-0.42,-0.169 -0.847,-0.327 -1.256,-0.507c-0.128,-0.056 -0.244,-0.093 -0.341,-0.15c-0.525,-0.236 -1.054,-0.468 -1.568,-0.716l-0.772,-0.401l-0.447,-0.225c-0.345,-0.18 -0.663,-0.368 -0.993,-0.559c-0.085,-0.039 -0.166,-0.084 -0.244,-0.135l0.011,0.004c-0.397,-0.248 -0.81,-0.488 -1.192,-0.739c-0.128,-0.071 -0.244,-0.157 -0.364,-0.232l-0.78,-0.507c-0.54,-0.375 -1.069,-0.776 -1.605,-1.166c-0.12,-0.109 -0.236,-0.199 -0.353,-0.296c-5.621,-4.399 -10.054,-10.41 -12.157,-17.217c-2.217,-7.076 -1.729,-15.011 2.1,-21.45l-4.707,6.63c-5.778,8.254 -5.452,19.287 -0.952,28.017c0.821,1.612 1.654,2.974 2.572,4.271c0.855,1.223 1.8,2.655 2.94,3.638c0.405,0.461 0.84,0.9 1.294,1.346Z" style="fill:#1266a9;fill-rule:nonzero;"/><path d="M51.247,5.351c-3.409,4.976 -3.735,11.156 -1.387,16.642c2.493,5.828 7.59,10.403 13.53,12.571c0.243,0.093 0.48,0.172 0.731,0.262l0.33,0.101c0.345,0.109 0.694,0.237 1.05,0.315c16.429,3.154 20.876,-8.392 22.073,-10.091c-3.912,5.588 -10.47,6.93 -18.518,4.984c-0.7,-0.171 -1.388,-0.384 -2.062,-0.638l0.123,0.042c-0.838,-0.291 -1.66,-0.629 -2.46,-1.013l0.143,0.064c-1.538,-0.75 -2.858,-1.56 -4.084,-2.49c-7.193,-5.438 -11.64,-15.792 -6.945,-24.226l-2.524,3.477Z" style="fill:#1266a9;fill-rule:nonzero;"/></g></svg>