<?xml version="1.0" encoding="UTF-8" standalone="no"?><!DOCTYPE svg PUBLIC "-//W3C//DTD SVG 1.1//EN" "http://www.w3.org/Graphics/SVG/1.1/DTD/svg11.dtd"><svg width="100%" height="100%" viewBox="0 0 90 90" version="1.1" xmlns="http://www.w3.org/2000/svg" xmlns:xlink="http://www.w3.org/1999/xlink" xml:space="preserve" xmlns:serif="http://www.serif.com/" style="fill-rule:evenodd;clip-rule:evenodd;stroke-linejoin:round;stroke-miterlimit:2;"><rect id="Plan-de-travail1" serif:id="Plan de travail1" x="0" y="0" width="90" height="90" style="fill:none;"/><g id="js"><path d="M12.312,80.545l-6.576,-80.36l78.528,0.161l-6.953,80.199l-32.015,9.27l-32.984,-9.27Z" style="fill:#e9ca32;fill-rule:nonzero;"/><path d="M45.296,82.054l0,-74.216l32.339,0.108l-5.767,66.401l-26.572,7.707Z" style="fill:#ffde25;fill-rule:nonzero;"/><g><path d="M41.834,16.65l-8.55,0l0,49.397l-6.649,-1.267l-0,-6.649l-7.916,-1.267l-0,14.882l23.115,6.017l-0,-61.113Zm6.413,0l23.668,0l-1.583,9.468l-13.05,-0l-0,15.536l13.05,0l-1.584,31.359l-20.501,4.75l-0,-9.816l13.852,-4.75l0.8,-12.983l-14.652,2.122l-0,-35.686Z" style="fill:#fff;fill-rule:nonzero;"/></g></g></svg>